SplineFontDB: 3.2
FontName: Untitled1
FullName: Untitled1
FamilyName: Untitled1
Weight: Regular
Copyright: Copyright (c) 2024, maura
UComments: "2024-3-16: Created with FontForge (http://fontforge.org)"
Version: 001.000
ItalicAngle: 0
UnderlinePosition: -100
UnderlineWidth: 50
Ascent: 800
Descent: 200
InvalidEm: 0
LayerCount: 4
Layer: 0 0 "Stra+AX4A-nji" 1
Layer: 1 0 "Prednji" 0
Layer: 2 0 "Stra+AX4A-nji 2" 1
Layer: 3 0 "Stra+AX4A-nji 3" 1
XUID: [1021 618 -1154393773 29813]
StyleMap: 0x0000
FSType: 0
OS2Version: 0
OS2_WeightWidthSlopeOnly: 0
OS2_UseTypoMetrics: 1
CreationTime: 1710606741
ModificationTime: 1710948334
OS2TypoAscent: 0
OS2TypoAOffset: 1
OS2TypoDescent: 0
OS2TypoDOffset: 1
OS2TypoLinegap: 90
OS2WinAscent: 0
OS2WinAOffset: 1
OS2WinDescent: 0
OS2WinDOffset: 1
HheadAscent: 0
HheadAOffset: 1
HheadDescent: 0
HheadDOffset: 1
DEI: 91125
Encoding: iso8859-2
UnicodeInterp: none
NameList: AGL For New Fonts
DisplaySize: -48
AntiAlias: 1
FitToEm: 0
WinInfo: 0 38 12
BeginChars: 262 42

StartChar: e
Encoding: 101 101 0
Width: 383
Flags: HW
LayerCount: 4
Fore
SplineSet
223.131835938 219.599609375 m 5
 204.79296875 227.969726562 177.692382812 227.278320312 155.354492188 215.077148438 c 5
 100.600585938 182.672851562 120.072265625 177.129882812 152.971679688 166.145507812 c 5
 180.49609375 168.297851562 214.232421875 173.490234375 226 177 c 5
 234.124023438 193.694335938 236.125976562 200.547851562 223.131835938 219.599609375 c 5
112.41015625 3.2001953125 m 5
 76.146484375 34.3564453125 49.361328125 52.8310546875 30.6552734375 134.799804688 c 5
 32.9072265625 197.8203125 69.986328125 243.66796875 135.97265625 269 c 5
 204.40625 280.642578125 254.225585938 272.720703125 295.483398438 255.799804688 c 5
 333.331054688 214.04296875 318.794921875 169.048828125 298.55078125 145.799804688 c 5
 234.176757812 167.612304688 202.219726562 134.837890625 169 120 c 5
 130.53515625 97.6708984375 152.463867188 72.2626953125 182.291992188 69.900390625 c 5
 216.57421875 90.4443359375 288.466796875 127.499023438 350 88 c 5
 223.490234375 95.888671875 303.350585938 50.6923828125 331 25 c 5
 210.702148438 85.4931640625 190.311523438 -19.4921875 112.41015625 3.2001953125 c 5
EndSplineSet
Validated: 33
EndChar

StartChar: r
Encoding: -1 114 1
Width: 347
Flags: HW
LayerCount: 4
Fore
SplineSet
115.797851562 0 m 5
 122.828125 115.592773438 103.196289062 218.598632812 51.6376953125 343.0703125 c 5
 131.836914062 329.34765625 l 5
 154.056640625 304.109375 172.333984375 289.924804688 169.932617188 266.737304688 c 5
 190.223632812 299.217773438 256.154296875 317.481445312 294.2421875 314.766601562 c 5
 302.262695312 268.688476562 l 5
 227.943359375 270.747070312 212.3515625 241.860351562 179.95703125 212.703125 c 5
 197 0 l 5
 115.797851562 0 l 5
EndSplineSet
Validated: 33
EndChar

StartChar: o
Encoding: -1 111 2
Width: 1000
Flags: H
LayerCount: 4
Fore
SplineSet
231.943359375 207.274414062 m 5
 250.435546875 222.279296875 268.927734375 217.807617188 287.419921875 210.94921875 c 5
 308.833007812 196.069335938 313.453125 181.190429688 318.448242188 166.3125 c 5
 313.807617188 138.784179688 303.473632812 129.79296875 294 118 c 5
 276.354492188 111.48046875 258.2734375 107.68359375 238.5234375 114.325195312 c 5
 221.319335938 121.643554688 213.666015625 139.485351562 207.495117188 158.962890625 c 5
 208.109375 176.819335938 213.7734375 193.501953125 231.943359375 207.274414062 c 5
381.263671875 272.896484375 m 1
 347.475585938 309.295898438 301.227539062 330.359375 233.858398438 325.424804688 c 1
 174.561523438 309.216796875 138.645507812 280.157226562 115.494140625 221.663085938 c 1
 95.978515625 156.383789062 109.630859375 102.346679688 140.654296875 55.4921875 c 1
 172.102539062 15.65234375 222.443359375 -3.599609375 290 0 c 1
 337.604492188 16.9521484375 372.341796875 26.591796875 412.245117188 113.642578125 c 1
 420.80859375 169.352539062 412.55078125 225.079101562 381.263671875 272.896484375 c 1
EndSplineSet
Validated: 41
EndChar

StartChar: A
Encoding: 65 65 3
Width: 1002
Flags: HW
LayerCount: 4
Fore
SplineSet
375 469 m 9
 487 467 l 21
 482.009615938 518.333333311 516.38804219 569.666666683 425 621 c 5
 349.781143229 573.958368527 367.063638612 521.189869179 375 469 c 9
46 0 m 1
 352 708 l 1
 438 754 476 762 576 714 c 1
 780 4 l 1
 612 -2 l 25
 506 342 l 1
 368 344 l 1
 242 0 l 1
 46 0 l 1
EndSplineSet
Validated: 33
EndChar

StartChar: uni01F0
Encoding: 256 496 4
Width: 1000
Flags: H
LayerCount: 4
Fore
SplineSet
400 98 m 29
 208 538 l 25
 654 358 l 25
 582 240 l 25
 750 212 l 25
 786 706 l 25
 430 646 l 25
 400 98 l 29
EndSplineSet
Validated: 5
EndChar

StartChar: dcroat
Encoding: 240 273 5
Width: 406
Flags: HW
LayerCount: 4
Fore
SplineSet
146 348 m 1
 184.467773438 340.432617188 186.263671875 327.275390625 194 308 c 1
 254.952148438 314.649414062 296.490234375 339.499023438 377 346 c 5
 331.202148438 359.331054688 349.262695312 375.068359375 347 398 c 1
 146 348 l 1
199.940429688 127.587890625 m 1
 170.020507812 136.7421875 170.640625 149.84375 134.940429688 135.587890625 c 1
 115.614781817 133.104555668 80.3155564091 86.1230901546 102.940429688 52.587890625 c 1
 141.598632812 29.2989866242 167.884765625 37.1363402687 204 40 c 1
 151.741210938 48.095703125 146.08984375 103.99609375 199.940429688 127.587890625 c 1
348 0 m 1
 252 14 133.401367188 -15.8720703125 51 17 c 1
 36.8095703125 56.171875 41.2578125 115.30078125 92 170 c 1
 137.451171875 194.463867188 167.26953125 209.537109375 218 193 c 1
 217.120350458 270.236857169 257.849518423 338.625571219 214 425 c 1
 270.321289062 408.486328125 325.606445312 490.108398438 340 521 c 1
 321.784179688 274.333007812 143.646484375 74.240234375 348 0 c 1
EndSplineSet
Validated: 37
EndChar

StartChar: scaron
Encoding: 185 353 6
Width: 388
Flags: HW
LayerCount: 4
Fore
SplineSet
193.764648438 309.200195312 m 5
 207.424804688 310.2734375 220.768554688 327.141601562 227.322265625 340.35546875 c 5
 247.393554688 319.142578125 228.67578125 364.263671875 240 379.234375 c 5
 260.7265625 321.684570312 l 5
 236.684570312 280.68359375 214.008789062 312.107421875 193.764648438 309.200195312 c 5
208.342773438 324.723632812 m 5
 194.689453125 325.969726562 181.217773438 335.623046875 174.745117188 348.920898438 c 5
 154.544921875 327.96484375 172.1796875 367.23046875 160.947265625 382.344726562 c 5
 140.703125 327.387695312 l 5
 161.301757812 262.655273438 192.141601562 320.122070312 208.342773438 324.723632812 c 5
266.006835938 209.717773438 m 1
 257.018554688 217.172851562 281.446289062 230.9140625 310.541992188 210.28125 c 1
 288.172851562 236.866210938 273.80078125 263.452148438 236.780273438 290.037109375 c 1
 218.905273438 296.998046875 203.552734375 304.88671875 171.879882812 291.9453125 c 1
 143.000976562 272.629882812 125.772460938 222.044921875 135.611328125 174.606445312 c 1
 153.391601562 130.494140625 171.982421875 130.002929688 206.23828125 109.734375 c 1
 220.883789062 99.4091796875 218.177734375 96.7998046875 215.463867188 73.9609375 c 1
 191.795898438 4.0107421875 91.3662109375 107.623046875 52.2412109375 96.4443359375 c 1
 103.314453125 96.2919921875 113.05859375 51.3525390625 86.296875 22.0556640625 c 1
 139.61328125 23.2255859375 171.171875 -24.212890625 233 26 c 1
 266.12109375 69.7333984375 271.380859375 129.060546875 246.004882812 141.216796875 c 1
 194.151367188 179.546875 187.883789062 171.537109375 180.151367188 202.270507812 c 1
 185.9921875 234.368164062 188.677734375 241.30078125 202.420898438 248.0625 c 1
 212.819335938 250.547851562 220.844726562 244.063476562 228.508789062 240.430664062 c 1
 240.858398438 233.950195312 253.43359375 219.770507812 266.006835938 209.717773438 c 1
EndSplineSet
Validated: 37
EndChar

StartChar: R
Encoding: 82 82 7
Width: 593
Flags: HW
LayerCount: 4
Fore
SplineSet
239.559570312 410.815429688 m 5
 249.944335938 429.416992188 225.537109375 481.98828125 210.759765625 500.590820312 c 5
 252.918945312 510.422851562 326.127929688 499.432617188 377.200195312 488.805664062 c 5
 440 469.604492188 404.377929688 454.802734375 373 442 c 5
 339.399414062 419.3203125 290.180664062 404.698242188 239.559570312 410.815429688 c 5
112 0 m 5
 236 0 l 5
 245.516771309 77.5428730706 287.87890625 172.921875 256 304 c 5
 307 316 332.216796875 308.44921875 310 301 c 5
 353.011340744 159.07037022 346.817097354 24.2761940272 425 0 c 5
 523 1 l 5
 429.875942353 142.358975615 453.272573909 183.877907274 386 323 c 5
 462.505859375 335.783203125 499.833007812 421.009765625 502 488 c 5
 486.598632812 523.266601562 452.784060424 544.193837635 404 564 c 5
 323.232670341 603.554764345 149.049804688 589.73828125 42 575 c 5
 242.644152087 384.663388043 167.453125 74.02734375 112 0 c 5
EndSplineSet
Validated: 41
EndChar

StartChar: u
Encoding: 117 117 8
Width: 440
Flags: HW
LayerCount: 4
Fore
SplineSet
55 361 m 1
 91 61 l 1
 205.756835938 -39.3876953125 265.010742188 -4.1484375 349 70 c 1
 329 264 l 1
 275.860351562 215.927734375 263.990234375 307.069335938 240 355 c 5
 275.989257812 120.279296875 l 1
 246.583984375 85.23046875 204.626953125 58.80078125 159.889648438 122.040039062 c 1
 141 268 l 1
 101.794921875 228.45703125 72.8818359375 309.252929688 55 361 c 1
EndSplineSet
Validated: 41
EndChar

StartChar: L
Encoding: -1 76 9
Width: 626
Flags: HW
LayerCount: 4
Fore
SplineSet
154 2 m 1
 142 640 l 25
 272 554 l 1
 274 114 l 5
 490 116 l 1
 490 2 l 1
 154 2 l 1
EndSplineSet
Validated: 1
EndChar

StartChar: v
Encoding: -1 118 10
Width: 1000
Flags: H
LayerCount: 4
Fore
SplineSet
158 346 m 1
 268 6 l 25
 428 2 l 25
 512 352 l 25
 394 350 l 25
 366 120 l 25
 298 118 l 1
 238 352 l 29
 158 346 l 1
EndSplineSet
Validated: 9
EndChar

StartChar: r
Encoding: 114 114 11
Width: 337
Flags: HW
LayerCount: 4
Fore
SplineSet
96.0126953125 0.068359375 m 1
 134.645420022 109.511471566 89.4109192144 231.112397447 36 354 c 1
 62.455078125 336.608398438 92.7548828125 294.485351562 116.62890625 323.995117188 c 1
 138.237304688 299.166992188 156.01171875 285.212890625 153.676757812 262.40234375 c 1
 173.41015625 294.35546875 238.52734375 312.322265625 275.567382812 309.651367188 c 1
 261.03957996 300.238312101 237.172052299 300.481430649 285.677734375 258.794921875 c 5
 209.301189506 271.555463227 185.606168784 244.886282238 158 206 c 5
 187.298071959 127.501107275 171.01792111 66.0428322303 167 0 c 1
 96.0126953125 0.068359375 l 1
EndSplineSet
Validated: 33
EndChar

StartChar: i
Encoding: 105 105 12
Width: 277
Flags: HW
LayerCount: 4
Fore
SplineSet
150.639648438 370.040039062 m 5
 151.595703125 373.833984375 155.932617188 376.798828125 160 379 c 1
 163.701171875 364.877929688 175.194335938 346.979492188 164.799804688 328.459960938 c 1
 162.415039062 326.463867188 158.743164062 324.7578125 156.040039062 325.379882812 c 5
 162.958779145 331.48310709 158.799413596 368.765626936 150.639648438 370.040039062 c 5
119.439453125 361.359375 m 1
 119.361328125 357.953125 121 355.33984375 123.51953125 352.399414062 c 1
 123.671875 361.005859375 142.147460938 374.415039062 145.719726562 372.979492188 c 1
 146.494140625 376.620117188 151.612304688 378.16015625 155.3203125 381.799804688 c 1
 144.31640625 387.525390625 117.237304688 379.625 119.439453125 361.359375 c 1
112.959960938 344 m 1
 112.90234375 323.682617188 137.53515625 317.241210938 147.280273438 322.299804688 c 1
 153.879882812 325.51953125 154.23046875 333.624023438 156.280273438 338.259765625 c 1
 144.789149141 318.281095362 112.865470424 338.166215822 115.959960938 362.620117188 c 1
 113.642578125 357.9453125 112.861328125 349.786132812 112.959960938 344 c 1
95 0 m 1
 129.32881954 100.136216042 82.265625 241.458007812 74 344 c 1
 119.628088299 251.520207047 152.816663892 255.435319053 191.1953125 305.119140625 c 1
 149.022228236 243.138093408 185.971431311 100.867946537 182.120117188 0 c 1
 95 0 l 1
EndSplineSet
Validated: 41
EndChar

StartChar: o
Encoding: 111 111 13
Width: 482
Flags: HW
LayerCount: 4
Fore
SplineSet
296.939453125 237.732421875 m 1
 302.27734375 255.959960938 326.491210938 270.19921875 349.19921875 280.772460938 c 1
 369.866210938 212.935546875 434.037109375 126.961914062 376 38 c 1
 362.682617188 28.4111328125 342.184570312 20.2177734375 327.08984375 23.205078125 c 1
 367.600585938 51.6171875 386.686523438 210.390625 296.939453125 237.732421875 c 1
122.739257812 196.037109375 m 1
 122.302734375 179.673828125 131.44921875 167.120117188 145.51953125 152.997070312 c 1
 127.212890625 219.115234375 224.1953125 291.505859375 269.469726562 251.854492188 c 1
 273.79296875 269.33984375 302.37109375 276.737304688 323.069335938 294.22265625 c 1
 261.6328125 321.725585938 110.443359375 283.775390625 122.739257812 196.037109375 c 1
86.5595703125 112.647460938 m 1
 86.2412109375 15.05078125 223.772460938 -15.8876953125 278.1796875 8.41015625 c 1
 315.029296875 23.8779296875 316.98828125 62.8056640625 328.4296875 85.0751953125 c 1
 247.123046875 -31.6435546875 73.5595703125 69.5361328125 103.309570312 202.08984375 c 1
 90.369140625 179.637695312 86.0078125 140.444335938 86.5595703125 112.647460938 c 1
EndSplineSet
Validated: 41
EndChar

StartChar: L
Encoding: 76 76 14
Width: 597
Flags: HW
LayerCount: 4
Fore
SplineSet
120.240234375 0 m 1
 107 659 l 1
 128.469726562 606.858398438 136.391601562 539.497070312 195 547 c 1
 204 90 l 1
 276.7890625 100.663085938 391.021484375 -9.37109375 440 84 c 5
 539 0 l 1
 120.240234375 0 l 1
EndSplineSet
Validated: 33
EndChar

StartChar: v
Encoding: 118 118 15
Width: 458
Flags: HW
LayerCount: 4
Fore
SplineSet
49.0517578125 346.298828125 m 1
 71.599609375 242.927734375 160.919921875 78.3525390625 239 0 c 1
 323.124023438 104.180664062 363.293945312 223.866210938 386.603515625 355.556640625 c 5
 370.091531315 308.971169193 347.290566239 268.956320413 288.60546875 266.432617188 c 5
 289.9140625 208.762695312 264.831054688 154.6171875 239 99.443359375 c 1
 201.486328125 148.715820312 177.171875 206.357421875 160.359375 265.618164062 c 1
 109.188640445 254.887173951 79.4450297365 301.461741008 49.0517578125 346.298828125 c 1
EndSplineSet
Validated: 41
EndChar

StartChar: O
Encoding: 79 79 16
Width: 626
Flags: HW
LayerCount: 4
Fore
SplineSet
418.44921875 395.21484375 m 5
 427.11328125 425.435546875 466.415039062 449.044921875 503.274414062 466.575195312 c 5
 536.819335938 354.1015625 640.977539062 211.55859375 546.774414062 64.0595703125 c 5
 525.159179688 48.162109375 491.887695312 34.578125 467.38671875 39.5302734375 c 5
 533.141601562 86.63671875 564.120117188 349.8828125 418.44921875 395.21484375 c 5
135.69921875 326.084960938 m 5
 134.990234375 298.954101562 149.836914062 278.139648438 172.674804688 254.724609375 c 5
 142.959960938 364.34765625 300.375 484.370117188 373.862304688 418.629882812 c 5
 380.87890625 447.620117188 427.265625 459.884765625 460.862304688 488.875 c 5
 361.141601562 534.475585938 115.741210938 471.552734375 135.69921875 326.084960938 c 5
76.974609375 187.825195312 m 5
 76.45703125 26.0107421875 299.690429688 -25.28515625 388 15 c 5
 447.8125 40.64453125 450.9921875 105.1875 469.5625 142.110351562 c 5
 337.590820312 -51.4091796875 55.875 116.346679688 104.162109375 336.120117188 c 5
 83.1591796875 298.89453125 76.078125 233.912109375 76.974609375 187.825195312 c 5
EndSplineSet
Validated: 41
EndChar

StartChar: V
Encoding: 86 86 17
Width: 745
Flags: HW
LayerCount: 4
Fore
SplineSet
380.625 3.9873046875 m 1
 244.715820312 149.090820312 150.88671875 377.49609375 75 571.227539062 c 1
 121.973632812 529.998046875 158.782226562 467.663085938 222.1875 471.075195312 c 1
 266.612304688 376.040039062 297.465820312 276.88671875 374.0625 191.612304688 c 1
 437.54296875 276.040039062 467.936523438 380.76171875 502.5 482.924804688 c 1
 554.17578125 489.4296875 599.559570312 530.040039062 641.25 590.6640625 c 1
 584.708984375 402.079101562 490.708984375 151.161132812 380.625 3.9873046875 c 1
EndSplineSet
Validated: 33
EndChar

StartChar: l
Encoding: 108 108 18
Width: 307
Flags: HW
LayerCount: 4
Fore
SplineSet
122.19921875 -1.83984375 m 1
 63.9083998279 192.910719995 181 443 128 645 c 1
 140.676456844 584.891225468 188.5703125 482.953125 257.540039062 508.6796875 c 1
 189.032226562 356.1796875 121.252929688 148.409179688 252 -1 c 1
 122.19921875 -1.83984375 l 1
EndSplineSet
Validated: 37
EndChar

StartChar: I
Encoding: 73 73 19
Width: 564
Flags: HW
LayerCount: 4
Fore
SplineSet
194 744 m 1
 185.620117188 494.756835938 291.30859375 239.255859375 190 0 c 1
 330 0 l 1
 320 392 l 1
 242 524 228.888671875 620.095703125 194 744 c 1
EndSplineSet
Validated: 41
EndChar

StartChar: Cdotaccent
Encoding: 257 266 20
Width: 1000
Flags: H
LayerCount: 4
Fore
SplineSet
12 270 m 29
 422 554 l 25
 614 260 l 25
 12 270 l 29
EndSplineSet
Validated: 1
EndChar

StartChar: Cacute
Encoding: 198 262 21
Width: 669
Flags: HW
LayerCount: 4
Fore
SplineSet
243.280273438 507.05078125 m 5
 282.762695312 534.55078125 333.259765625 545.173828125 370.744140625 533.555664062 c 5
 395.48046875 618.485351562 486.880859375 529.4375 540.16796875 524.720703125 c 5
 449.915039062 627.20703125 l 5
 310.869140625 671.563476562 283.921875 557.995117188 243.280273438 507.05078125 c 5
544 395 m 5
 440.337890625 487.888671875 303.854492188 542.413085938 182.5 430.271484375 c 5
 98.0126953125 327.282226562 97.9404296875 189.60546875 148.616210938 81.306640625 c 5
 238.74609375 -64.44921875 403.813476562 26.7626953125 470 60 c 5
 473.11328125 124.0703125 509.768554688 160.380859375 553 206 c 5
 478.3046875 168.442382812 309.791015625 11.8427734375 230.291015625 127.786132812 c 5
 233.434570312 121.838867188 141.887695312 291.087890625 267.82421875 386.010742188 c 5
 331.752929688 425.577148438 372.069335938 377.505859375 436 363 c 5
 444.82421875 398.646484375 503.557617188 400.021484375 544 395 c 5
EndSplineSet
Validated: 41
EndChar

StartChar: Ccaron
Encoding: 200 268 22
Width: 787
Flags: HW
LayerCount: 4
Fore
SplineSet
378.595703125 551.25 m 5
 414.58203125 553.72265625 449.734375 592.567382812 467 623 c 5
 519.875976562 574.147460938 489.169921875 718.5234375 519 753 c 5
 555 580 l 5
 491.665039062 466.568359375 431.92578125 553.7734375 378.595703125 551.25 c 5
417 587 m 5
 381.032226562 589.87109375 345.54296875 612.102539062 328.489257812 642.7265625 c 5
 275.276367188 594.46484375 318.58984375 722.19140625 289 757 c 5
 239.55859375 608.248046875 l 5
 277.694335938 489.395507812 372.383789062 580.030273438 417 587 c 5
599 420 m 1
 485.084960938 519.879882812 345.43359375 580.723632812 212.077148438 460.141601562 c 1
 119.234375 349.400390625 119.154296875 201.361328125 174.842773438 84.91015625 c 1
 273.885742188 -71.81640625 454.267578125 30.2607421875 527 66 c 1
 530.421875 134.893554688 577.493164062 184.947265625 625 234 c 1
 542.916992188 193.615234375 351.95703125 10.2177734375 264.594726562 134.888671875 c 1
 268.048828125 128.493164062 167.448242188 310.481445312 305.83984375 412.549804688 c 1
 376.091796875 455.09375 420.747070312 419.59765625 491 404 c 1
 500.697265625 442.329101562 554.557617188 425.3984375 599 420 c 1
EndSplineSet
Validated: 41
EndChar

StartChar: Gcaron
Encoding: 258 486 23
Width: 640
Flags: HW
LayerCount: 4
Fore
SplineSet
239.629882812 352.66015625 m 5
 271.047851562 371.646484375 311.231445312 378.981445312 341.060546875 370.959960938 c 5
 360.744140625 429.598632812 433.475585938 368.1171875 475.879882812 364.860351562 c 5
 404.060546875 435.620117188 l 5
 293.4140625 466.24609375 271.970703125 387.833984375 239.629882812 352.66015625 c 5
493.520507812 268.48046875 m 5
 411.029296875 332.61328125 287.831054688 377.075195312 191.262695312 299.649414062 c 5
 124.032226562 228.541015625 123.973632812 133.484375 164.299804688 58.7109375 c 5
 236.021484375 -41.923828125 375.33203125 21.0517578125 428 44 c 5
 430.478515625 88.236328125 473.608398438 119.86328125 508.009765625 151.360351562 c 5
 448.5703125 125.428710938 292.555664062 10.75 229.29296875 90.8017578125 c 5
 231.794921875 86.6962890625 158.946289062 203.551757812 259.16015625 269.08984375 c 5
 310.032226562 296.408203125 362.049804688 258.556640625 412.921875 248.541015625 c 5
 419.944335938 273.151367188 461.337890625 271.946289062 493.520507812 268.48046875 c 5
EndSplineSet
Validated: 37
EndChar

StartChar: ccaron
Encoding: 232 269 24
Width: 507
Flags: HW
LayerCount: 4
Fore
SplineSet
251.381835938 301.087890625 m 1
 270.814453125 302.447265625 295.803710938 319.807617188 305.126953125 336.545898438 c 1
 333.6796875 309.676757812 338.686523438 374.124023438 354.794921875 393.0859375 c 1
 346.639648438 316.900390625 l 1
 312.438476562 254.512695312 280.1796875 302.475585938 251.381835938 301.087890625 c 1
272.137695312 314.504882812 m 1
 252.715820312 316.083984375 233.533203125 334.556640625 224.32421875 351.399414062 c 1
 195.588867188 324.85546875 187.298828125 391.670898438 171.3203125 410.815429688 c 1
 176.301757812 332.436523438 l 1
 196.89453125 267.067382812 248.044921875 310.670898438 272.137695312 314.504882812 c 1
375 228 m 1
 313.486328125 282.934570312 233.473632812 317.297851562 161.4609375 250.977539062 c 1
 111.326171875 190.0703125 111.283203125 108.6484375 141.354492188 44.6005859375 c 1
 194.837890625 -41.5986328125 287.724609375 12.34375 327 32 c 5
 328.84765625 69.8916015625 359.345703125 98.021484375 385 125 c 1
 340.674804688 102.788085938 236.99609375 3.51953125 189.821289062 72.0888671875 c 1
 191.686523438 68.5712890625 137.361328125 168.665039062 212.092773438 224.802734375 c 1
 250.029296875 248.201171875 273.063476562 221.578125 311 213 c 1
 316.236328125 234.081054688 351.000976562 230.969726562 375 228 c 1
EndSplineSet
Validated: 41
EndChar

StartChar: cacute
Encoding: 230 263 25
Width: 494
Flags: HW
LayerCount: 4
Fore
SplineSet
170.583007812 287.64453125 m 1
 199.173828125 303.30859375 235.740234375 309.359375 262.884765625 302.7421875 c 1
 280.796875 351.119140625 346.982421875 300.396484375 385.5703125 297.709960938 c 1
 320.21484375 356.0859375 l 1
 219.526367188 381.352539062 200.013671875 316.663085938 170.583007812 287.64453125 c 1
376 228 m 1
 300.93359375 280.909179688 214.446289062 307.787109375 126.569335938 243.91015625 c 1
 65.3896484375 185.24609375 65.3359375 106.82421875 102.032226562 45.13671875 c 1
 167.299804688 -37.8876953125 277.072265625 12.0673828125 325 31 c 1
 327.254882812 67.4951171875 347.6953125 91.0146484375 379 117 c 5
 324.91015625 95.6064453125 218.745117188 5.568359375 161.176757812 71.611328125 c 1
 163.453125 68.224609375 97.1611328125 164.629882812 188.35546875 218.69921875 c 1
 234.649414062 241.236328125 249.70703125 216.262695312 296 208 c 1
 302.390625 228.303710938 346.713867188 230.859375 376 228 c 1
EndSplineSet
Validated: 37
EndChar

StartChar: U
Encoding: 85 85 26
Width: 522
Flags: HW
LayerCount: 4
Fore
SplineSet
78 602 m 1
 127.836914062 95.1953125 l 1
 276.424804688 -55.5361328125 353.146484375 -2.625 461.895507812 108.708984375 c 1
 437 422 l 1
 368.194335938 349.819335938 350.0625 530.032226562 319 602 c 5
 367.361328125 184.203125 l 1
 329.287109375 131.578125 274.961914062 91.8935546875 217.03515625 186.846679688 c 1
 192 431 l 1
 141.237304688 371.626953125 101.153320312 524.301757812 78 602 c 1
EndSplineSet
Validated: 41
EndChar

StartChar: Eth
Encoding: 259 208 27
Width: 821
Flags: HW
LayerCount: 4
Fore
SplineSet
490.970703125 328.420898438 m 1
 454.647460938 307.35546875 512.969726562 270.970703125 557.120117188 249.905273438 c 1
 239.600585938 234.5859375 l 1
 287.48046875 249.907226562 267.3203125 279.270507812 209.360351562 315.015625 c 1
 490.970703125 328.420898438 l 1
380.5 360.611328125 m 1
 431.758789062 442.567382812 477.126953125 402.719726562 533.211914062 354.004882812 c 1
 627.099609375 280.900390625 593.66015625 230 535.763671875 184.163085938 c 1
 464.266601562 144.953125 435.469726562 116.862304688 400.25 163.73046875 c 1
 491.002929688 211.461914062 455.963867188 310.383789062 380.5 360.611328125 c 1
65.720703125 450.98046875 m 1
 317.880859375 395.291015625 562.999023438 168.001953125 80.8408203125 60.3203125 c 1
 205.534179688 16.203125 382.716796875 -41.55078125 542 45 c 1
 740.661132812 183.41796875 736.224609375 312.598632812 519.3203125 527.580078125 c 1
 393.65234375 592.08984375 249.211914062 683.165039062 65.720703125 450.98046875 c 1
EndSplineSet
Validated: 37
EndChar

StartChar: Dcroat
Encoding: 208 272 28
Width: 924
Flags: HW
LayerCount: 4
Fore
SplineSet
516 344 m 5
 477.563476562 322 539.279296875 284 586 262 c 5
 250 246 l 5
 300.666992188 262.001953125 279.333007812 292.66796875 218 330 c 5
 516 344 l 5
399.100585938 377.620117188 m 5
 453.341796875 463.213867188 501.350585938 421.596679688 560.700195312 370.719726562 c 5
 660.051757812 294.37109375 624.666015625 241.2109375 563.400390625 193.33984375 c 5
 487.7421875 152.389648438 457.26953125 123.051757812 420 172 c 5
 516.034179688 221.849609375 478.956054688 325.163085938 399.100585938 377.620117188 c 5
66 472 m 5
 332.836914062 413.838867188 592.220703125 176.4609375 82 64 c 5
 213.951171875 17.9248046875 401.446289062 -42.392578125 570 48 c 5
 780.22265625 192.561523438 775.528320312 327.475585938 546 552 c 5
 413.017578125 619.373046875 260.170898438 714.490234375 66 472 c 5
EndSplineSet
Validated: 37
EndChar

StartChar: E
Encoding: 69 69 29
Width: 586
Flags: HW
LayerCount: 4
Fore
SplineSet
99 503 m 13
 104 30 l 5
 227.333007812 11.53515625 328.666992188 -24.091796875 452 37 c 5
 425.573242188 50.4365234375 360.141601562 31.009765625 494 169 c 5
 412.413085938 122.83984375 297.693359375 63.599609375 209 139 c 5
 195 207 l 29
 395 302 l 5
 183 361 l 29
 185 426 l 5
 249.881835938 486.4453125 401.64453125 448.627929688 487 394 c 5
 481.075195312 420 359.528320312 485 414 511 c 5
 312.544921875 569.516601562 205.640625 533.993164062 99 503 c 13
EndSplineSet
Validated: 41
EndChar

StartChar: J
Encoding: 74 74 30
Width: 492
Flags: HW
LayerCount: 4
Fore
SplineSet
405 60 m 1049
354 610 m 1
 332.400390625 568.150390625 309.600585938 478.908203125 288 500.66015625 c 1
 274.428710938 375.706054688 351.170898438 261.135742188 261.600585938 94.62109375 c 1
 247.392578125 90.2529296875 171.126953125 65.2724609375 179 126 c 1
 173.2890625 129.92578125 180.209960938 119.409179688 179 126 c 1
 160.794921875 166.357421875 188.009765625 319.26953125 126 307 c 1
 152.66796875 246.666992188 65.0615234375 158.157226562 134.400390625 32.5 c 1
 216.770507812 -29.90234375 269.994140625 0.8779296875 327.600585938 37.1201171875 c 1
 404.096679688 235.474609375 342.64453125 418.76171875 354 610 c 1
EndSplineSet
Validated: 37
EndChar

StartChar: j
Encoding: 106 106 31
Width: 332
Flags: HW
LayerCount: 4
Fore
SplineSet
194.379882812 -117.686523438 m 1
 266.471679688 0.2373046875 192.854492188 113.750976562 203.182617188 214.74609375 c 1
 217.810546875 196.83203125 233.25 270.327148438 247.876953125 304.791992188 c 1
 240.1875 147.298828125 281.801757812 -3.646484375 230 -167 c 1
 190.990234375 -196.846679688 140.7265625 -218.078125 84.9462890625 -166.6875 c 1
 -9.5322265625 -30.763671875 91.0205078125 4.9892578125 74.5166015625 56.08203125 c 1
 80.546875 27.2236328125 71.7001953125 -221.24609375 194.379882812 -117.686523438 c 1
EndSplineSet
Validated: 37
EndChar

StartChar: Scaron
Encoding: 169 352 32
Width: 662
Flags: HW
LayerCount: 4
Fore
SplineSet
361.115234375 543.528320312 m 5
 387.1875 545.432617188 412.655273438 575.36328125 425.1640625 598.811523438 c 5
 463.47265625 561.170898438 427.748046875 641.236328125 449.360351562 667.799804688 c 5
 488.919921875 565.680664062 l 5
 443.034179688 492.92578125 399.752929688 548.685546875 361.115234375 543.528320312 c 5
388.939453125 571.073242188 m 5
 362.880859375 573.28515625 337.168945312 590.415039062 324.813476562 614.010742188 c 5
 286.260742188 576.825195312 319.91796875 646.5 298.479492188 673.3203125 c 5
 259.83984375 575.799804688 l 5
 299.15625 460.934570312 358.017578125 562.907226562 388.939453125 571.073242188 c 5
499 367 m 5
 481.843104547 380.228322311 528.466534385 404.611219888 584 368 c 5
 541.305279203 415.174479167 513.875227839 462.348958333 443.21484375 509.5234375 c 5
 409.100585938 521.875976562 379.796875 535.873046875 319.345703125 512.909179688 c 5
 264.2265625 478.635742188 231.34375 388.875 250.124023438 304.6953125 c 5
 284.059341788 226.421258871 319.541910617 225.548656204 384.922851562 189.583984375 c 5
 412.876953125 171.260742188 407.711914062 166.630859375 402.53125 126.104492188 c 5
 357.357421875 1.9794921875 165.674804688 185.836914062 91 166 c 5
 188.479492188 165.729492188 207.077148438 85.9873046875 156 34 c 5
 257.760742188 36.076171875 317.995117188 -48.1025390625 436 41 c 5
 499.216796875 118.603515625 509.255859375 223.876953125 460.823242188 245.446289062 c 5
 361.852771518 313.462496986 349.890253409 299.249696084 335.1328125 353.78515625 c 5
 346.280273438 410.741210938 351.407226562 423.041992188 377.63671875 435.040039062 c 5
 397.482717005 439.450972246 412.801253755 427.943878266 427.427734375 421.498046875 c 5
 451 410 475.000912436 384.837093758 499 367 c 5
EndSplineSet
Validated: 37
EndChar

StartChar: zcaron
Encoding: 190 382 33
Width: 492
Flags: HW
LayerCount: 4
Fore
SplineSet
252.250976562 338.731445312 m 1
 263.490234375 339.888671875 274.46875 358.072265625 279.860351562 372.315429688 c 1
 296.374023438 349.450195312 280.973632812 398.086914062 290.291015625 414.225585938 c 1
 307.34375 352.189453125 l 1
 287.5625 307.9921875 268.907226562 341.866210938 252.250976562 338.731445312 c 1
264.245117188 355.465820312 m 1
 253.012695312 356.809570312 241.927734375 367.21484375 236.603515625 381.549804688 c 1
 219.984375 358.959960938 234.4921875 401.286132812 225.251953125 417.578125 c 1
 208.596679688 358.336914062 l 1
 225.54296875 288.557617188 250.916015625 350.505859375 264.245117188 355.465820312 c 1
141.950195312 317.853515625 m 1
 192.709960938 289.732421875 305.04296875 305.522460938 367.409179688 308.284179688 c 1
 316.498046875 213.463867188 218.135742188 158.123046875 222 58 c 1
 252.321289062 82.7060546875 309.15234375 50.7978515625 372.485351562 52.7275390625 c 1
 355.514648438 34.3388671875 294.590820312 23.83203125 325.955078125 5.443359375 c 1
 271.012695312 29.1728515625 200.33203125 23.58203125 122.915039062 5.443359375 c 1
 149.412109375 98.751953125 183.887695312 171.094726562 264 256 c 5
 103.458007812 258.748046875 l 1
 105.26171875 274.092773438 170.1171875 286.895507812 141.950195312 317.853515625 c 1
EndSplineSet
Validated: 37
EndChar

StartChar: Zcaron
Encoding: 174 381 34
Width: 674
Flags: HW
LayerCount: 4
Fore
SplineSet
368.6015625 595.162109375 m 1
 391.080078125 597.22265625 413.037109375 629.588867188 423.8203125 654.94140625 c 1
 456.84765625 614.2421875 426.046875 700.815429688 444.681640625 729.541992188 c 1
 478.787109375 619.1171875 l 1
 439.224609375 540.446289062 401.9140625 600.7421875 368.6015625 595.162109375 c 1
392.58984375 624.94921875 m 1
 370.125 627.341796875 347.955078125 645.862304688 337.306640625 671.37890625 c 1
 304.068359375 631.168945312 333.083984375 706.509765625 314.603515625 735.509765625 c 1
 281.29296875 630.060546875 l 1
 315.185546875 505.852539062 365.931640625 616.12109375 392.58984375 624.94921875 c 1
148 558 m 1
 249.51953125 507.944335938 474.185546875 536.05078125 598.91796875 540.965820312 c 1
 497.095703125 372.186523438 300.37109375 273.6796875 308.099609375 95.4599609375 c 1
 368.7421875 139.4375 482.404296875 82.640625 609.0703125 86.0751953125 c 1
 575.12890625 53.34375 453.28125 34.6416015625 516.009765625 1.9091796875 c 1
 406.125 44.1484375 264.763671875 34.1962890625 109.9296875 1.9091796875 c 1
 162.923828125 167.999023438 231.875 296.768554688 392.099609375 447.900390625 c 1
 71.015625 452.791992188 l 1
 74.623046875 480.10546875 204.333984375 502.89453125 148 558 c 1
EndSplineSet
Validated: 37
EndChar

StartChar: uni01C5
Encoding: 260 453 35
Width: 1617
Flags: HW
LayerCount: 4
Fore
SplineSet
399.100585938 377.620117188 m 1
 453.341796875 463.213867188 501.350585938 421.596679688 560.700195312 370.719726562 c 1
 660.051757812 294.37109375 624.666015625 241.2109375 563.400390625 193.33984375 c 1
 487.7421875 152.389648438 457.26953125 123.051757812 420 172 c 1
 516.034179688 221.849609375 478.956054688 325.163085938 399.100585938 377.620117188 c 1
66 472 m 1
 332.836914062 413.838867188 592.220703125 176.4609375 82 64 c 1
 213.951171875 17.9248046875 401.446289062 -42.392578125 570 48 c 1
 780.22265625 192.561523438 775.528320312 327.475585938 546 552 c 1
 413.017578125 619.373046875 260.170898438 714.490234375 66 472 c 1
876.765625 337.00390625 m 5
 888.004882812 338.161132812 898.983398438 356.344726562 904.375 370.587890625 c 5
 920.888671875 347.72265625 905.48828125 396.359375 914.805664062 412.498046875 c 5
 931.858398438 350.461914062 l 5
 912.077148438 306.264648438 893.421875 340.138671875 876.765625 337.00390625 c 5
888.759765625 353.73828125 m 5
 877.52734375 355.08203125 866.442382812 365.487304688 861.118164062 379.822265625 c 5
 844.499023438 357.232421875 859.006835938 399.55859375 849.766601562 415.850585938 c 5
 833.111328125 356.609375 l 5
 850.057617188 286.830078125 875.430664062 348.778320312 888.759765625 353.73828125 c 5
766.46484375 316.125976562 m 5
 817.224609375 288.004882812 929.557617188 303.794921875 991.923828125 306.556640625 c 5
 941.012695312 211.736328125 842.650390625 156.395507812 846.514648438 56.2724609375 c 5
 876.8359375 80.978515625 933.666992188 49.0703125 997 51 c 5
 980.029296875 32.611328125 919.10546875 22.1044921875 950.469726562 3.7158203125 c 5
 895.52734375 27.4453125 824.846679688 21.8544921875 747.4296875 3.7158203125 c 5
 773.926757812 97.0244140625 808.40234375 169.3671875 888.514648438 254.272460938 c 5
 727.97265625 257.020507812 l 5
 729.776367188 272.365234375 794.631835938 285.16796875 766.46484375 316.125976562 c 5
EndSplineSet
Validated: 37
EndChar

StartChar: uni01C6
Encoding: 261 454 36
Width: 722
Flags: HW
LayerCount: 4
Fore
SplineSet
199.940429688 127.587890625 m 1
 170.020507812 136.7421875 170.640625 149.84375 134.940429688 135.587890625 c 1
 115.614781817 133.104555668 80.3155564091 86.1230901546 102.940429688 52.587890625 c 1
 141.598632812 29.2989866242 167.884765625 37.1363402687 204 40 c 1
 151.741210938 48.095703125 146.08984375 103.99609375 199.940429688 127.587890625 c 1
348 0 m 1
 252 14 133.401367188 -15.8720703125 51 17 c 1
 36.8095703125 56.171875 41.2578125 115.30078125 92 170 c 1
 137.451171875 194.463867188 167.26953125 209.537109375 218 193 c 1
 217.120350458 270.236857169 257.849518423 338.625571219 214 425 c 1
 270.321289062 408.486328125 325.606445312 490.108398438 340 521 c 1
 321.784179688 274.333007812 143.646484375 74.240234375 348 0 c 1
479.295898438 333.288085938 m 5
 490.53515625 334.4453125 501.513671875 352.62890625 506.905273438 366.872070312 c 5
 523.418945312 344.006835938 508.018554688 392.643554688 517.3359375 408.782226562 c 5
 534.388671875 346.74609375 l 5
 514.607421875 302.548828125 495.952148438 336.422851562 479.295898438 333.288085938 c 5
491.290039062 350.022460938 m 5
 480.057617188 351.366210938 468.97265625 361.771484375 463.6484375 376.106445312 c 5
 447.029296875 353.516601562 461.537109375 395.842773438 452.296875 412.134765625 c 5
 435.641601562 352.893554688 l 5
 452.587890625 283.114257812 477.9609375 345.0625 491.290039062 350.022460938 c 5
368.995117188 312.41015625 m 5
 419.754882812 284.2890625 532.087890625 300.079101562 594.454101562 302.840820312 c 5
 543.54296875 208.020507812 445.180664062 152.6796875 449.044921875 52.556640625 c 5
 479.366210938 77.2626953125 536.197265625 45.3544921875 599.530273438 47.2841796875 c 5
 582.559570312 28.8955078125 521.635742188 18.388671875 553 0 c 5
 498.057617188 23.7294921875 427.376953125 18.138671875 349.959960938 0 c 5
 376.45703125 93.30859375 410.932617188 165.651367188 491.044921875 250.556640625 c 5
 330.502929688 253.3046875 l 5
 332.306640625 268.649414062 397.162109375 281.452148438 368.995117188 312.41015625 c 5
EndSplineSet
Validated: 37
EndChar

StartChar: S
Encoding: 83 83 37
Width: 662
Flags: HW
LayerCount: 4
Fore
SplineSet
499 367 m 1
 481.843104547 380.228322311 528.466534385 404.611219888 584 368 c 1
 541.305279203 415.174479167 513.875227839 462.348958333 443.21484375 509.5234375 c 1
 409.100585938 521.875976562 379.796875 535.873046875 319.345703125 512.909179688 c 1
 264.2265625 478.635742188 231.34375 388.875 250.124023438 304.6953125 c 1
 284.059341788 226.421258871 319.541910617 225.548656204 384.922851562 189.583984375 c 1
 412.876953125 171.260742188 407.711914062 166.630859375 402.53125 126.104492188 c 1
 357.357421875 1.9794921875 165.674804688 185.836914062 91 166 c 1
 188.479492188 165.729492188 207.077148438 85.9873046875 156 34 c 1
 257.760742188 36.076171875 317.995117188 -48.1025390625 436 41 c 1
 499.216796875 118.603515625 509.255859375 223.876953125 460.823242188 245.446289062 c 1
 361.852771518 313.462496986 349.890253409 299.249696084 335.1328125 353.78515625 c 1
 346.280273438 410.741210938 351.407226562 423.041992188 377.63671875 435.040039062 c 1
 397.482717005 439.450972246 412.801253755 427.943878266 427.427734375 421.498046875 c 1
 451 410 475.000912436 384.837093758 499 367 c 1
EndSplineSet
Validated: 41
EndChar

StartChar: s
Encoding: 115 115 38
Width: 388
Flags: HW
LayerCount: 4
Fore
SplineSet
266.006835938 209.717773438 m 1
 257.018554688 217.172851562 281.446289062 230.9140625 310.541992188 210.28125 c 1
 288.172851562 236.866210938 273.80078125 263.452148438 236.780273438 290.037109375 c 1
 218.905273438 296.998046875 203.552734375 304.88671875 171.879882812 291.9453125 c 1
 143.000976562 272.629882812 125.772460938 222.044921875 135.611328125 174.606445312 c 1
 153.391601562 130.494140625 171.982421875 130.002929688 206.23828125 109.734375 c 1
 220.883789062 99.4091796875 218.177734375 96.7998046875 215.463867188 73.9609375 c 1
 191.795898438 4.0107421875 91.3662109375 107.623046875 52.2412109375 96.4443359375 c 1
 103.314453125 96.2919921875 113.05859375 51.3525390625 86.296875 22.0556640625 c 1
 139.61328125 23.2255859375 171.171875 -24.212890625 233 26 c 1
 266.12109375 69.7333984375 271.380859375 129.060546875 246.004882812 141.216796875 c 1
 194.151367188 179.546875 187.883789062 171.537109375 180.151367188 202.270507812 c 1
 185.9921875 234.368164062 188.677734375 241.30078125 202.420898438 248.0625 c 1
 212.819335938 250.547851562 220.844726562 244.063476562 228.508789062 240.430664062 c 1
 240.858398438 233.950195312 253.43359375 219.770507812 266.006835938 209.717773438 c 1
EndSplineSet
Validated: 41
EndChar

StartChar: c
Encoding: 99 99 40
Width: 640
Flags: HW
LayerCount: 4
Fore
SplineSet
493.520507812 268.48046875 m 1
 411.029296875 332.61328125 287.831054688 377.075195312 191.262695312 299.649414062 c 1
 124.032226562 228.541015625 123.973632812 133.484375 164.299804688 58.7109375 c 1
 236.021484375 -41.923828125 375.33203125 21.0517578125 428 44 c 1
 430.478515625 88.236328125 473.608398438 119.86328125 508.009765625 151.360351562 c 1
 448.5703125 125.428710938 292.555664062 10.75 229.29296875 90.8017578125 c 1
 231.794921875 86.6962890625 158.946289062 203.551757812 259.16015625 269.08984375 c 1
 310.032226562 296.408203125 362.049804688 258.556640625 412.921875 248.541015625 c 1
 419.944335938 273.151367188 461.337890625 271.946289062 493.520507812 268.48046875 c 1
EndSplineSet
Validated: 37
EndChar

StartChar: C
Encoding: 67 67 41
Width: 669
Flags: HW
LayerCount: 4
Fore
SplineSet
544 395 m 1
 440.337890625 487.888671875 303.854492188 542.413085938 182.5 430.271484375 c 1
 98.0126953125 327.282226562 97.9404296875 189.60546875 148.616210938 81.306640625 c 1
 238.74609375 -64.44921875 403.813476562 26.7626953125 470 60 c 1
 473.11328125 124.0703125 509.768554688 160.380859375 553 206 c 1
 478.3046875 168.442382812 309.791015625 11.8427734375 230.291015625 127.786132812 c 1
 233.434570312 121.838867188 141.887695312 291.087890625 267.82421875 386.010742188 c 1
 331.752929688 425.577148438 372.069335938 377.505859375 436 363 c 1
 444.82421875 398.646484375 503.557617188 400.021484375 544 395 c 1
EndSplineSet
Validated: 41
EndChar
